<?xml version="1.0" encoding="utf-8"?>
<!-- Generator: Adobe Illustrator 16.0.0, SVG Export Plug-In . SVG Version: 6.00 Build 0)  -->
<!DOCTYPE svg PUBLIC "-//W3C//DTD SVG 1.1//EN" "http://www.w3.org/Graphics/SVG/1.1/DTD/svg11.dtd">
<svg version="1.1" id="Layer_1" xmlns="http://www.w3.org/2000/svg" xmlns:xlink="http://www.w3.org/1999/xlink" x="0px" y="0px"
	 width="58.896px" height="50.034px" viewBox="0 0 58.896 50.034" enable-background="new 0 0 58.896 50.034" xml:space="preserve">
<polygon fill="#BBBBBB" points="45.08,1.035 45.08,9.912 35.957,9.912 35.957,13.615 45.08,13.615 45.08,22.493 48.712,22.493 
	48.712,13.615 57.834,13.615 57.834,9.912 48.712,9.912 48.712,1.035 "/>
<g>
	<defs>
		<rect id="SVGID_1_" x="1.334" y="1.034" width="56.499" height="48"/>
	</defs>
	<clipPath id="SVGID_2_">
		<use xlink:href="#SVGID_1_"  overflow="visible"/>
	</clipPath>
	<path clip-path="url(#SVGID_2_)" fill="#BBBBBB" d="M33.393,1.034H17.607c-6.801,0-12.923,5.067-13.099,10.866
		c0.185,6.168,5.025,10.647,11.51,10.647c0.003,0,0.005,0,0.008,0c0.004,0,0.006,0,0.01,0c0,0,0.001,0,0.002,0
		c0.002,0,0.003,0,0.005,0s0.003,0,0.004,0c0.002,0,0.003,0,0.005,0c0.193,0,0.426-0.002,0.662-0.007l-0.005,0.011l0.324-0.015
		c-0.007,0.015-0.014,0.03-0.02,0.045l-0.093,0.219c-0.128,0.268-0.237,0.531-0.322,0.779c-0.346,0.854-0.293,1.992-0.248,2.219
		c0.186,0.953,0.652,1.857,1.418,2.746l-0.419,0.006c-0.412,0.007-0.829,0.012-1.264,0.012c-7.997,0-14.753,4.999-14.753,10.914
		c0,0.117,0.005,0.229,0.011,0.31l-0.003,0.078c-0.003,0.068-0.007,0.137-0.007,0.205c0,5.195,6.459,8.964,15.356,8.964
		c9.686,0,14.754-5.49,14.754-10.915c0-0.149-0.002-0.295-0.005-0.44c-0.089-4.18-1.517-6.72-5.269-9.372
		c-0.833-0.591-2.037-1.633-2.849-2.63c-0.53-0.65-0.725-1.154-0.851-1.679c-0.117-0.748,0.076-1.404,0.085-1.439
		c0.196-0.885,0.823-1.612,2.585-2.988c2.664-2.083,4.181-4.803,4.271-7.682c-0.088-3.366-1.463-6.24-3.607-7.743h3.283
		L33.393,1.034z M26.768,36.701c0.112,0.47,0.169,0.95,0.169,1.424c0,0.113-0.002,0.227-0.007,0.369
		c0.003,0.074,0.007,0.148,0.007,0.222c0,4.735-3.554,7.238-10.277,7.238c-5.216,0-9.302-3.275-9.302-7.456
		c0-0.08,0.005-0.158,0.009-0.282c-0.004-0.102-0.009-0.206-0.009-0.309c0-3.857,4.735-7.24,10.133-7.24h0.141
		c1.202,0.014,2.372,0.198,3.479,0.549c0.376,0.263,0.738,0.509,1.085,0.745C24.647,33.632,26.268,34.735,26.768,36.701
		 M21.592,19.492c-0.903,0.925-2.042,1.414-3.296,1.414l-0.148-0.003c-3.589-0.106-7.021-4.074-7.646-8.844
		c-0.081-0.601-0.112-1.199-0.095-1.801c-0.057-2.272,0.624-4.307,1.868-5.583c0.906-0.928,2.061-1.42,3.341-1.42l0.153,0.002
		c3.599,0.108,7.03,4.017,7.647,8.714c0.079,0.597,0.111,1.197,0.094,1.805C23.566,16.1,22.868,18.183,21.592,19.492"/>
</g>
</svg>
