<?xml version="1.0" encoding="utf-8"?>
<!-- Generator: Adobe Illustrator 16.0.0, SVG Export Plug-In . SVG Version: 6.00 Build 0)  -->
<!DOCTYPE svg PUBLIC "-//W3C//DTD SVG 1.1//EN" "http://www.w3.org/Graphics/SVG/1.1/DTD/svg11.dtd">
<svg version="1.1" id="Layer_1" xmlns="http://www.w3.org/2000/svg" xmlns:xlink="http://www.w3.org/1999/xlink" x="0px" y="0px"
	 width="48.283px" height="46.472px" viewBox="0 0 48.283 46.472" enable-background="new 0 0 48.283 46.472" xml:space="preserve">
<g>
	<defs>
		<rect id="SVGID_1_" x="1.726" y="1.661" width="44.785" height="43.104"/>
	</defs>
	<clipPath id="SVGID_2_">
		<use xlink:href="#SVGID_1_"  overflow="visible"/>
	</clipPath>
	<path clip-path="url(#SVGID_2_)" fill="#BBBBBB" d="M12.351,6.973c0,2.935-2.378,5.312-5.313,5.312
		c-2.934,0-5.311-2.378-5.311-5.312c0-2.933,2.377-5.311,5.311-5.311C9.972,1.662,12.351,4.04,12.351,6.973"/>
	<rect x="1.878" y="15.321" clip-path="url(#SVGID_2_)" fill="#BBBBBB" width="10.321" height="29.445"/>
	<path clip-path="url(#SVGID_2_)" fill="#BBBBBB" d="M37.243,15.169c-4.834-0.179-8.294,1.648-10.321,3.178v-3.026H16.753v29.445
		h10.168v-19.27c0.343-1.285,1.437-2.891,4.856-2.891c5.312,0,4.403,4.858,4.403,4.858v17.302H46.5V27.464
		C46.652,21.24,45.135,15.625,37.243,15.169"/>
</g>
</svg>
